# xmcd
#
# Track frame offsets:
#	150
#	13308
#	31118
#	44175
#	52732
#	72397
#	89072
#	102523
#	119506
#	132203
#	149602
#
# Disc length: 2238 seconds
#
# Revision: 0
# Processed by: cddbd v1.5PL3 Copyright (c) Steve Scherf et al.
# Submitted via: dBpowerAMP V4.0
#
DISCID=a808bc0b
DTITLE=Dirty Blues Band - Dirty Blues Band
DYEAR=1967
DGENRE=Blues
TTITLE0=Don´t Start Me Talkin´
TTITLE1=What Is Soul Babe
TTITLE2=Hound Dog
TTITLE3=New Orleans Woman
TTITLE4=I´ll Do Anything Babe
TTITLE5=Checkin´Up My Baby
TTITLE6=Shake It Babe
TTITLE7=Worry Worry Blues
TTITLE8=Born Under Bad Sign
TTITLE9=Spoonful
TTITLE10=Chicken Shack
EXTD=
EXTT0=
EXTT1=
EXTT2=
EXTT3=
EXTT4=
EXTT5=
EXTT6=
EXTT7=
EXTT8=
EXTT9=
EXTT10=
PLAYORDER=
